<svg width="21" height="20" viewBox="0 0 21 20" fill="none" xmlns="http://www.w3.org/2000/svg">
<path d="M1 1L3.08 1.35582L4.04301 12.6957C4.12001 13.6218 4.90301 14.3325 5.84301 14.3295H16.752C17.649 14.3315 18.41 13.6791 18.537 12.8014L19.486 6.31954C19.592 5.59505 19.083 4.92294 18.351 4.81817C18.287 4.80927 3.414 4.80433 3.414 4.80433" stroke="#363853" stroke-width="1.5" stroke-linecap="round" stroke-linejoin="round"/>
<path d="M11.375 8.27179H14.1479" stroke="#363853" stroke-width="1.5" stroke-linecap="round" stroke-linejoin="round"/>
<path fill-rule="evenodd" clip-rule="evenodd" d="M4.4043 17.5701C4.70527 17.5701 4.94824 17.8114 4.94824 18.108C4.94824 18.4057 4.70527 18.647 4.4043 18.647C4.10333 18.647 3.86035 18.4057 3.86035 18.108C3.86035 17.8114 4.10333 17.5701 4.4043 17.5701Z" fill="#363853" stroke="#363853" stroke-width="1.5" stroke-linecap="round" stroke-linejoin="round"/>
<path fill-rule="evenodd" clip-rule="evenodd" d="M15.6846 17.5701C15.9856 17.5701 16.2296 17.8114 16.2296 18.108C16.2296 18.4057 15.9856 18.647 15.6846 18.647C15.3836 18.647 15.1406 18.4057 15.1406 18.108C15.1406 17.8114 15.3836 17.5701 15.6846 17.5701Z" fill="#363853" stroke="#363853" stroke-width="1.5" stroke-linecap="round" stroke-linejoin="round"/>
</svg>
